<?xml version="1.0" standalone="no"?>
<!DOCTYPE svg PUBLIC "-//W3C//DTD SVG 20010904//EN"
 "http://www.w3.org/TR/2001/REC-SVG-20010904/DTD/svg10.dtd">
<svg version="1.0" xmlns="http://www.w3.org/2000/svg"
 width="2362.000000pt" height="2362.000000pt" viewBox="0 0 2362.000000 2362.000000"
 preserveAspectRatio="xMidYMid meet">

<g transform="translate(0.000000,2362.000000) scale(0.100000,-0.100000)"
fill="#000000" stroke="none">
<path d="M11335 21549 c-2427 -119 -4701 -1127 -6419 -2845 -1834 -1833 -2855
-4296 -2856 -6889 -1 -1938 559 -3793 1631 -5405 477 -717 1039 -1362 1675
-1920 1544 -1356 3446 -2184 5479 -2385 310 -30 424 -36 810 -42 418 -6 708 4
1070 38 1709 158 3332 761 4735 1759 687 489 1305 1060 1846 1710 853 1022
1497 2230 1868 3505 371 1277 478 2637 310 3965 -354 2807 -1914 5322 -4274
6889 -813 540 -1658 939 -2573 1215 -1058 319 -2198 459 -3302 405z m1215
-423 c619 -55 1131 -143 1687 -292 1354 -361 2629 -1040 3699 -1970 834 -725
1537 -1595 2070 -2562 92 -166 281 -549 359 -727 751 -1708 973 -3601 639
-5445 -280 -1545 -961 -3017 -1959 -4235 -374 -457 -863 -946 -1320 -1320
-776 -636 -1708 -1173 -2635 -1518 -1534 -571 -3165 -732 -4775 -472 -1275
206 -2479 668 -3563 1367 -1419 915 -2578 2214 -3322 3723 -510 1036 -819
2130 -925 3280 -49 532 -48 1164 1 1710 154 1712 790 3366 1823 4740 771 1027
1738 1883 2843 2516 1252 717 2610 1121 4098 1218 211 14 1074 5 1280 -13z"/>
<path d="M11230 20650 c-34 -8 -260 -31 -489 -49 -119 -10 -178 -31 -84 -31
67 0 98 -24 107 -82 11 -75 66 -659 72 -775 8 -131 -2 -158 -61 -169 -65 -12
-53 -27 16 -21 62 5 194 16 464 38 80 6 135 15 143 23 15 15 28 151 18 190 -9
36 -22 25 -30 -25 -13 -83 -86 -119 -239 -119 -78 1 -100 11 -116 53 -6 14
-18 108 -27 207 -13 144 -14 184 -4 190 6 4 59 11 116 14 127 9 153 0 169 -58
7 -22 17 -42 23 -44 9 -3 11 28 8 115 -3 65 -5 120 -5 122 -1 3 -11 -5 -24
-17 -13 -12 -46 -26 -74 -31 -79 -15 -233 -25 -234 -15 0 5 -8 90 -18 189 -10
99 -15 183 -11 188 3 4 65 8 137 10 147 2 167 -5 179 -70 13 -67 29 -29 32 75
3 113 6 109 -68 92z"/>
<path d="M13225 20511 c-186 -53 -329 -206 -380 -406 -8 -32 -15 -96 -15 -140
0 -327 247 -556 599 -558 164 0 291 51 402 162 177 178 225 474 111 684 -37
69 -138 160 -225 201 -150 72 -356 96 -492 57z m236 -51 c79 -15 170 -63 219
-116 50 -55 96 -148 111 -229 23 -123 -7 -316 -69 -443 -75 -153 -214 -227
-363 -192 -220 52 -341 240 -326 504 15 263 128 442 300 476 59 11 68 11 128
0z"/>
<path d="M9918 20475 c-27 -15 -610 -175 -731 -201 -38 -8 -79 -11 -93 -8 -24
6 -24 5 -23 -57 1 -88 12 -152 27 -157 7 -2 12 5 12 17 0 39 28 89 57 104 40
20 274 89 281 83 6 -7 183 -665 213 -793 26 -115 22 -140 -31 -160 -42 -17
-53 -33 -22 -33 9 0 46 9 82 20 36 11 110 32 165 46 55 14 117 30 138 35 58
15 46 32 -17 24 -30 -4 -63 -4 -74 -1 -30 10 -52 73 -157 462 -53 198 -103
380 -110 405 l-13 47 104 26 c57 14 130 26 163 26 62 0 70 -5 107 -66 23 -38
24 -4 1 92 -24 106 -32 115 -79 89z"/>
<path d="M14750 20152 c0 -5 18 -16 40 -26 58 -25 75 -55 60 -103 -28 -87
-293 -743 -323 -798 l-32 -60 -58 2 c-31 1 -57 -2 -57 -7 0 -4 39 -22 88 -40
48 -17 140 -54 204 -81 65 -27 122 -49 128 -49 20 0 9 21 -16 30 -52 20 -84
50 -84 79 0 51 142 429 165 437 15 6 188 -62 218 -86 16 -13 23 -32 27 -76 l6
-59 52 104 c29 57 51 105 49 107 -2 3 -16 0 -31 -5 -14 -6 -34 -8 -43 -5 -73
25 -253 98 -253 103 0 12 132 336 140 345 6 5 56 -10 125 -39 130 -54 172 -89
160 -134 -11 -39 -11 -46 0 -51 9 -4 95 151 95 172 0 4 -7 8 -15 8 -19 0 -231
81 -447 171 -162 67 -198 78 -198 61z"/>
<path d="M8280 19940 c-85 -43 -156 -83 -158 -90 -3 -9 1 -11 14 -5 42 18 92
28 107 22 25 -9 54 -62 184 -332 137 -282 163 -352 163 -427 0 -172 -184 -303
-355 -253 -47 13 -70 28 -117 75 -53 53 -71 85 -197 342 -76 156 -144 299
-150 319 -15 45 -8 63 35 90 32 20 45 39 25 39 -6 0 -61 -26 -123 -58 -62 -32
-151 -75 -197 -95 -55 -25 -81 -41 -74 -48 6 -6 22 -4 47 6 57 24 86 16 117
-30 14 -22 75 -141 135 -265 59 -124 123 -251 141 -282 47 -80 122 -154 190
-186 50 -23 70 -27 148 -26 77 0 102 5 172 33 152 60 259 164 293 285 17 62 8
185 -20 266 -12 36 -76 177 -142 314 -66 137 -122 264 -125 282 -5 29 -1 35
35 61 23 15 41 31 42 36 1 17 -44 0 -190 -73z"/>
<path d="M6879 19184 c-25 -27 -474 -366 -587 -443 -35 -23 -78 -49 -97 -57
-40 -16 -40 -15 20 -133 42 -85 58 -91 49 -21 -5 38 -3 56 10 75 17 26 224
195 239 195 7 0 365 -477 471 -628 31 -44 63 -96 71 -116 15 -36 15 -36 -21
-76 -54 -60 -16 -52 65 13 36 29 112 86 168 125 56 40 105 77 108 83 15 23 -5
19 -58 -11 -62 -35 -81 -32 -126 18 -22 25 -509 674 -524 698 -8 13 180 145
232 162 47 17 55 15 89 -13 34 -28 42 -31 42 -12 -1 16 -102 160 -116 164 -5
2 -21 -9 -35 -23z"/>
<path d="M16724 19088 c-42 -40 -71 -74 -65 -76 6 -2 30 4 54 13 56 21 73 15
214 -87 l112 -80 -201 -267 c-269 -355 -348 -452 -381 -471 -25 -14 -30 -13
-67 7 -22 13 -41 19 -45 13 -3 -5 45 -47 107 -93 62 -47 142 -108 178 -136 36
-28 68 -51 73 -51 17 0 4 23 -33 56 -72 65 -79 51 285 532 l227 301 61 -47
c96 -74 165 -144 173 -176 5 -21 2 -39 -10 -60 -10 -17 -13 -33 -8 -38 6 -6
36 24 76 74 36 46 66 85 66 88 -1 3 -28 21 -60 40 -85 50 -564 415 -627 478
l-53 52 -76 -72z"/>
<path d="M11355 19109 c-2276 -142 -4350 -1334 -5622 -3232 -1011 -1508 -1418
-3315 -1157 -5137 268 -1878 1305 -3626 2827 -4768 1111 -833 2354 -1314 3742
-1448 226 -22 875 -30 1113 -15 1622 106 3077 696 4318 1751 204 173 611 580
784 784 1055 1241 1645 2696 1751 4319 15 233 6 895 -15 1112 -56 566 -163
1088 -328 1595 -897 2755 -3339 4726 -6213 5015 -350 35 -861 45 -1200 24z
m720 -399 c882 -38 1697 -223 2478 -561 214 -93 604 -293 795 -408 1409 -846
2468 -2151 2997 -3691 353 -1030 456 -2117 304 -3215 -118 -855 -432 -1757
-874 -2510 -998 -1701 -2679 -2903 -4595 -3285 -804 -160 -1570 -181 -2370
-64 -2052 299 -3854 1503 -4931 3296 -115 191 -315 581 -408 795 -485 1118
-663 2357 -516 3583 123 1016 479 2005 1042 2887 500 784 1200 1495 2001 2032
301 202 812 474 1157 616 713 295 1445 466 2195 515 153 10 227 13 420 18 41
1 179 -3 305 -8z"/>
<path d="M11515 18304 c-27 -2 -120 -8 -205 -14 -399 -28 -837 -105 -1240
-216 -1956 -542 -3551 -1976 -4303 -3869 -520 -1307 -598 -2774 -222 -4135
540 -1950 1974 -3549 3859 -4302 989 -395 2073 -538 3151 -417 1296 145 2508
680 3525 1553 135 116 520 501 636 636 469 546 843 1150 1109 1795 438 1058
585 2251 419 3410 -135 953 -490 1874 -1033 2684 -631 941 -1491 1696 -2511
2205 -722 360 -1491 576 -2320 651 -162 15 -747 28 -865 19z m395 -1484 c20
-20 20 -33 20 -1350 l0 -1331 -25 -24 c-21 -22 -33 -25 -93 -25 -54 0 -75 4
-93 19 l-24 19 -3 1330 -2 1329 21 27 c19 24 26 26 100 26 66 0 82 -3 99 -20z
m-364 -1392 l34 -38 0 -1294 0 -1293 -21 -27 c-38 -48 -67 -56 -206 -56 -147
0 -183 12 -215 71 -17 32 -18 93 -18 1302 0 1406 -4 1316 64 1359 28 17 47 18
179 16 l149 -3 34 -37z m891 22 c67 -41 63 54 63 -1352 0 -1192 -1 -1275 -18
-1308 -28 -58 -67 -70 -218 -70 -120 0 -134 2 -165 23 -18 12 -39 34 -46 47
-10 20 -13 302 -13 1310 0 1423 -5 1309 64 1351 26 16 51 19 166 19 116 0 139
-3 167 -20z m-3551 -552 l521 -520 27 17 c19 13 38 16 68 12 39 -5 75 -39 709
-673 368 -368 674 -681 680 -696 23 -55 6 -86 -109 -201 -118 -118 -151 -134
-208 -104 -16 9 -327 314 -692 680 -630 630 -664 666 -669 705 -4 30 -1 49 12
68 l17 27 -520 521 c-286 286 -523 531 -527 543 -5 18 4 34 47 79 55 58 82 75
108 66 8 -2 250 -239 536 -524z m6481 469 c35 -35 63 -72 63 -83 0 -11 -201
-220 -524 -544 -519 -519 -525 -525 -511 -550 8 -14 14 -43 15 -65 0 -39 -6
-45 -677 -717 -709 -709 -701 -702 -765 -683 -33 11 -218 194 -235 234 -9 20
-12 45 -8 65 5 24 151 175 668 694 364 365 674 670 689 678 34 18 71 18 107 0
l27 -15 515 515 c467 468 533 531 563 533 5 1 38 -27 73 -62z m-4538 -2885
c59 -32 71 -68 71 -215 0 -139 -8 -168 -56 -206 l-27 -21 -1293 0 -1294 0 -38
34 -37 34 -3 149 c-2 131 -1 151 16 179 43 68 -50 64 1357 64 1211 0 1272 -1
1304 -18z m4566 4 c63 -27 75 -62 75 -219 0 -104 -4 -145 -15 -167 -33 -64 53
-60 -1364 -60 l-1289 0 -31 26 c-43 36 -53 81 -49 221 3 136 14 162 79 195 32
17 114 18 1297 18 1076 0 1268 -2 1297 -14z m-5884 -585 c15 -18 19 -39 19
-93 0 -60 -3 -72 -25 -93 l-24 -25 -1331 0 c-1543 0 -1370 -15 -1370 119 0 74
2 81 26 100 l27 21 1329 -2 1330 -3 19 -24z m7315 5 c9 -13 14 -47 14 -102 0
-74 -2 -84 -22 -98 -20 -14 -165 -16 -1349 -16 -1249 0 -1328 1 -1348 18 -20
15 -22 25 -19 107 3 84 5 90 28 102 20 10 297 12 1353 10 1302 -2 1329 -2
1343 -21z m-5996 -339 c13 -7 35 -28 47 -46 21 -31 23 -45 23 -165 0 -151 -12
-190 -70 -218 -33 -17 -116 -18 -1310 -18 -1247 0 -1276 1 -1307 20 -54 32
-63 63 -63 210 0 142 8 171 56 209 l27 21 1286 0 c1009 0 1291 -3 1311 -13z
m4601 -26 l39 -39 0 -143 c0 -160 -6 -180 -59 -216 l-34 -23 -1274 0 c-1434 0
-1328 -6 -1364 74 -15 32 -19 66 -19 159 0 136 12 176 62 207 33 20 47 20
1322 20 l1288 0 39 -39z m-4768 -655 c39 -16 221 -201 232 -234 19 -64 26 -56
-683 -765 -672 -671 -678 -677 -717 -677 -22 1 -51 7 -65 15 -25 14 -31 8
-550 -511 -324 -323 -533 -524 -544 -524 -11 0 -48 29 -84 64 -53 54 -63 68
-57 88 4 13 240 257 525 543 513 514 519 520 505 545 -18 32 -19 74 -1 108 21
39 1326 1339 1356 1351 35 13 46 13 83 -3z m841 0 c18 -7 42 -26 54 -41 l22
-28 0 -1289 c0 -1416 4 -1330 -60 -1363 -22 -11 -63 -15 -167 -15 -121 0 -142
3 -171 20 -66 40 -62 -40 -60 1364 3 1271 3 1275 24 1303 37 51 76 63 207 63
77 0 129 -5 151 -14z m922 -5 c80 -36 74 70 74 -1364 l0 -1274 -23 -34 c-36
-53 -56 -59 -216 -59 l-143 0 -39 39 -39 39 0 1288 c0 1275 0 1289 20 1322 31
50 68 61 205 61 96 1 128 -3 161 -18z m617 5 c18 -8 314 -297 700 -683 661
-663 667 -669 667 -708 -1 -22 -7 -51 -15 -65 -14 -25 -8 -31 511 -550 333
-335 524 -533 524 -545 0 -26 -119 -145 -144 -145 -14 0 -201 181 -546 524
-519 519 -525 525 -550 511 -14 -8 -43 -14 -65 -15 -39 0 -45 6 -712 672 -473
473 -676 683 -684 705 -18 54 2 90 109 195 119 119 143 131 205 104z m-1129
-1388 c14 -20 16 -164 16 -1348 0 -1184 -2 -1328 -16 -1348 -14 -20 -24 -22
-98 -22 -55 0 -89 5 -102 14 -19 14 -19 39 -19 1354 0 1120 2 1342 14 1355 11
14 32 17 102 17 79 0 89 -2 103 -22z"/>
<path d="M5516 18038 c-82 -84 -144 -154 -138 -156 6 -2 27 8 45 22 19 14 44
26 56 26 23 0 488 -442 613 -584 93 -105 98 -116 64 -160 -29 -38 -32 -49 -13
-44 19 5 318 314 311 321 -4 4 -27 -9 -51 -29 -25 -20 -55 -36 -68 -36 -36 0
-72 33 -402 364 -208 208 -303 310 -303 325 0 12 11 35 25 51 25 29 32 52 18
52 -5 -1 -75 -69 -157 -152z"/>
<path d="M18000 18126 c0 -7 7 -19 16 -27 32 -26 47 -69 34 -99 -14 -35 -561
-554 -654 -622 -48 -35 -70 -35 -112 -3 -40 30 -54 18 -18 -16 15 -13 83 -87
152 -164 162 -181 274 -295 288 -295 20 0 164 111 164 126 0 18 -3 18 -42 -6
-76 -46 -147 -14 -249 113 -65 82 -60 97 74 226 61 60 130 124 151 142 l39 34
65 -70 c71 -77 102 -121 102 -147 0 -9 -12 -31 -26 -48 -29 -33 -25 -52 6 -32
40 25 160 125 160 133 0 5 -12 9 -26 9 -20 0 -51 24 -126 97 -54 54 -97 103
-96 110 4 16 269 264 280 261 16 -6 148 -163 163 -194 16 -34 11 -57 -21 -101
-31 -43 10 -26 90 38 l77 61 -38 28 c-33 25 -312 317 -403 423 -34 39 -50 46
-50 23z"/>
<path d="M4897 17366 c-44 -78 -420 -589 -474 -644 -29 -29 -53 -57 -53 -60 0
-14 139 -146 147 -139 3 4 -1 23 -10 42 -9 20 -17 47 -17 60 0 21 126 222 165
263 10 11 70 -28 331 -219 449 -327 458 -335 420 -399 -9 -16 -16 -33 -16 -39
0 -26 21 -6 71 67 29 42 88 123 131 180 82 108 97 158 23 78 -50 -55 -70 -57
-139 -15 -57 35 -661 472 -688 498 -16 15 -12 22 57 110 110 139 136 154 223
126 12 -4 22 -3 22 2 0 7 -122 106 -157 126 -7 4 -21 -10 -36 -37z"/>
<path d="M18744 16870 c-214 -32 -400 -183 -465 -377 -29 -86 -32 -227 -6
-323 37 -136 150 -323 260 -429 40 -39 50 -43 80 -38 45 7 190 78 196 96 3 11
-2 12 -20 7 -133 -41 -227 3 -320 146 -57 88 -74 148 -73 253 2 182 98 336
274 439 101 59 166 79 260 80 74 1 93 -3 142 -27 156 -77 293 -335 249 -470
-7 -20 -30 -54 -52 -75 -36 -37 -49 -62 -31 -62 4 0 54 29 110 64 57 36 109
67 115 69 15 5 0 50 -58 172 -122 254 -274 408 -455 458 -74 21 -144 27 -206
17z"/>
<path d="M3982 15978 c-48 -64 -84 -134 -106 -207 -56 -188 54 -346 250 -359
88 -6 146 10 313 85 153 68 223 78 295 44 52 -25 85 -73 93 -130 11 -79 -47
-185 -120 -220 -52 -25 -95 -26 -166 -5 -53 15 -68 14 -57 -5 10 -15 200 -121
218 -121 27 0 113 103 152 181 93 187 60 359 -85 447 -67 40 -108 52 -185 52
-79 0 -142 -19 -299 -93 -148 -69 -208 -81 -270 -51 -82 38 -100 139 -42 234
45 74 82 93 175 87 47 -3 71 0 69 6 -4 12 -166 105 -183 106 -6 1 -30 -23 -52
-51z"/>
<path d="M19824 15579 c4 -13 10 -45 13 -71 5 -44 4 -48 -27 -66 -44 -27 -769
-310 -829 -324 -61 -14 -77 -8 -98 37 -18 37 -33 46 -33 19 0 -8 16 -52 35
-97 19 -45 54 -133 77 -196 24 -62 48 -112 53 -110 11 4 11 3 -6 71 -15 57 -8
68 61 103 56 28 370 155 385 155 13 0 208 -497 202 -514 -5 -12 -234 -105
-361 -146 -88 -29 -116 -24 -141 22 -21 39 -35 49 -35 24 0 -7 18 -58 41 -112
23 -55 57 -142 76 -194 18 -52 38 -99 43 -104 20 -20 22 4 5 54 -24 72 -13 90
77 133 95 45 737 295 777 303 48 10 75 -2 94 -41 16 -33 37 -47 37 -24 0 5
-18 52 -40 104 -22 52 -56 138 -75 192 -20 54 -40 102 -44 106 -14 14 -23 -11
-11 -33 6 -11 11 -37 12 -57 1 -29 -4 -41 -25 -57 -37 -27 -339 -148 -348
-138 -10 12 -202 512 -198 516 6 6 149 63 259 103 56 20 103 32 117 28 13 -3
31 -22 43 -45 18 -35 40 -53 40 -33 0 4 -24 68 -54 142 -30 75 -65 165 -78
200 -13 36 -30 67 -37 69 -11 4 -12 -1 -7 -19z"/>
<path d="M3445 14773 c-9 -32 -32 -110 -51 -174 -19 -63 -34 -121 -34 -127 0
-27 17 -9 37 38 36 86 26 86 411 -15 185 -48 343 -91 351 -95 15 -8 -12 -24
-234 -140 -66 -35 -187 -100 -270 -145 -82 -45 -230 -123 -327 -174 -98 -51
-178 -96 -178 -100 0 -5 6 -13 13 -18 6 -6 194 -65 417 -133 623 -188 586
-172 576 -257 -4 -31 -2 -53 3 -53 11 0 22 32 50 145 11 44 29 107 41 139 11
33 20 67 20 78 0 32 -17 19 -35 -27 -18 -49 -38 -65 -82 -65 -22 0 -579 139
-667 166 -14 5 30 32 160 98 231 117 789 425 815 450 14 12 17 22 11 28 -6 6
-163 57 -349 114 -607 187 -621 192 -639 219 -11 18 -14 35 -9 65 10 62 -12
49 -30 -17z"/>
<path d="M20085 13570 c-559 -80 -579 -82 -609 -69 -19 9 -30 24 -38 56 -6 24
-14 46 -19 49 -12 7 -11 -50 1 -101 5 -22 17 -94 25 -159 9 -66 18 -123 21
-128 12 -20 21 5 17 45 -7 58 8 82 59 101 38 14 629 126 666 126 18 0 24 9
-118 -171 -58 -73 -203 -266 -322 -429 -202 -274 -242 -340 -205 -340 6 0 225
29 485 65 261 36 486 65 501 65 39 0 69 -26 77 -65 3 -19 11 -35 16 -35 12 0
9 34 -21 229 -22 150 -41 192 -41 94 0 -69 -10 -85 -62 -102 -47 -14 -659
-122 -676 -119 -9 2 21 50 90 138 57 74 169 223 249 330 80 107 189 251 242
319 53 68 97 130 97 138 0 21 -64 15 -435 -37z"/>
<path d="M3027 12963 c-3 -5 -8 -46 -11 -93 -4 -47 -14 -136 -23 -198 -8 -62
-13 -115 -10 -118 11 -11 27 8 27 32 0 35 42 74 80 74 43 0 763 -78 835 -91
87 -15 105 -30 105 -85 0 -75 24 -49 33 37 4 41 14 128 22 194 8 66 15 132 15
148 0 44 -18 31 -26 -19 -3 -25 -17 -58 -29 -72 l-23 -26 -138 12 c-198 18
-766 81 -786 88 -33 10 -48 35 -48 80 0 39 -11 57 -23 37z"/>
<path d="M20013 11890 c-165 -30 -303 -125 -383 -264 -68 -118 -94 -333 -57
-475 69 -259 291 -424 572 -424 163 1 275 44 373 147 109 113 156 246 156 441
1 176 -42 297 -142 406 -120 130 -337 201 -519 169z m312 -215 c126 -33 207
-92 252 -183 25 -50 28 -68 28 -152 0 -85 -3 -102 -31 -160 -76 -161 -240
-249 -462 -250 -229 0 -393 74 -459 208 -24 49 -28 68 -27 137 3 214 154 370
402 415 64 12 224 4 297 -15z"/>
<path d="M3997 11261 c-6 -67 -37 -132 -99 -207 -57 -70 -291 -324 -298 -324
-3 0 -30 19 -60 41 -86 65 -154 93 -230 93 -162 2 -270 -109 -270 -279 0 -28
11 -118 24 -200 13 -83 29 -190 36 -239 6 -50 14 -94 16 -98 12 -20 21 5 17
47 -7 62 12 90 74 104 85 20 725 112 819 118 87 6 92 5 107 -18 10 -13 17 -33
17 -46 0 -22 16 -40 27 -30 3 3 -2 49 -11 102 -9 53 -23 147 -31 208 -8 61
-20 116 -25 121 -12 12 -13 6 -10 -46 2 -53 -7 -76 -39 -92 -31 -17 -336 -70
-356 -62 -8 3 -16 32 -20 76 l-7 71 159 157 c199 196 219 230 210 355 -8 101
-27 207 -37 207 -4 0 -10 -27 -13 -59z m-466 -577 c51 -30 76 -75 85 -151 4
-40 3 -73 -3 -82 -11 -17 -48 -25 -305 -62 -105 -15 -161 -20 -168 -13 -5 5
-13 38 -16 72 -12 115 53 210 168 245 72 22 193 17 239 -9z"/>
<path d="M19436 10233 c-3 -10 -14 -58 -25 -108 -10 -49 -44 -182 -75 -294
-58 -212 -66 -261 -42 -280 12 -10 168 -71 181 -71 3 0 5 6 5 13 0 6 -18 22
-41 35 -57 33 -73 74 -59 153 18 100 48 184 74 209 22 20 32 22 82 17 32 -3
224 -47 428 -98 425 -106 421 -104 410 -189 -12 -88 13 -56 36 48 12 53 35
144 51 202 16 58 29 114 29 123 0 30 -18 18 -30 -20 -18 -55 -37 -73 -80 -73
-55 0 -821 193 -877 221 l-48 24 3 53 c2 50 -11 71 -22 35z"/>
<path d="M4300 9683 c0 -10 5 -38 11 -62 15 -68 -2 -80 -215 -150 -346 -114
-667 -211 -696 -211 -33 0 -52 16 -70 59 -12 31 -30 42 -30 19 0 -7 18 -67 39
-133 22 -66 49 -153 61 -192 24 -85 44 -98 34 -23 -8 58 2 75 56 98 51 22 712
229 791 248 88 21 112 15 133 -36 15 -37 36 -54 36 -29 0 6 -20 72 -45 147
-25 75 -54 170 -66 210 -19 67 -39 95 -39 55z"/>
<path d="M3128 9155 c-38 -21 -48 -77 -21 -113 15 -20 30 -28 60 -30 54 -4 87
23 87 72 0 65 -68 103 -126 71z"/>
<path d="M19250 8935 c-100 -28 -162 -65 -240 -144 -86 -87 -138 -179 -170
-306 -67 -263 46 -515 289 -644 230 -121 458 -94 623 73 151 152 235 401 199
588 -37 189 -184 347 -388 419 -78 28 -238 35 -313 14z m265 -209 c231 -78
369 -222 367 -384 -1 -154 -100 -295 -249 -353 -89 -34 -240 -32 -348 5 -168
57 -314 166 -366 271 -35 72 -34 178 3 257 48 103 139 184 248 220 82 27 238
20 345 -16z"/>
<path d="M4565 8814 c42 -100 43 -123 11 -161 -14 -16 -197 -156 -409 -311
-211 -155 -392 -291 -402 -302 -12 -13 -15 -24 -9 -30 7 -7 172 -3 473 11 255
11 465 18 467 16 2 -2 -120 -172 -271 -377 -151 -206 -275 -381 -275 -388 0
-7 6 -15 13 -17 7 -3 226 69 487 161 260 91 489 168 509 172 31 5 38 1 67 -34
18 -21 36 -36 39 -32 9 9 -147 301 -164 306 -11 4 -12 0 -6 -14 4 -11 13 -36
18 -57 10 -32 9 -40 -8 -56 -19 -18 -605 -245 -605 -234 0 3 69 98 153 212
165 220 307 425 307 441 0 13 -174 11 -538 -3 -155 -7 -282 -10 -282 -7 1 3
89 68 197 145 331 236 359 254 383 248 20 -5 21 -3 15 18 -16 50 -151 303
-164 307 -10 4 -12 0 -6 -14z"/>
<path d="M18370 7401 c-105 -33 -181 -82 -276 -176 -50 -49 -110 -118 -133
-153 -75 -112 -140 -272 -122 -299 3 -5 77 -63 164 -128 170 -127 184 -145
154 -198 -10 -16 -17 -33 -17 -38 0 -25 24 -1 84 84 36 50 90 124 120 162 51
64 67 95 49 95 -4 0 -21 -16 -39 -35 -52 -57 -70 -51 -236 73 -167 125 -171
132 -115 217 168 252 462 307 721 134 88 -59 165 -138 202 -210 25 -48 29 -65
29 -144 0 -102 -13 -144 -75 -234 -75 -112 -203 -205 -298 -218 -27 -4 -54 1
-87 16 -78 35 -75 10 7 -54 40 -32 88 -72 106 -89 l32 -30 86 84 c176 174 284
334 319 475 20 77 19 207 -1 276 -54 183 -212 337 -403 393 -72 21 -201 20
-271 -3z"/>
<path d="M5480 7119 c-82 -45 -130 -80 -130 -95 0 -17 0 -17 43 1 105 44 157
12 337 -203 114 -136 136 -168 122 -174 -9 -3 -147 -21 -307 -38 -430 -47
-817 -98 -827 -108 -6 -6 49 -79 139 -188 228 -274 321 -392 328 -414 3 -11
11 -20 17 -20 14 0 194 108 208 125 17 21 -4 27 -36 10 -33 -17 -91 -19 -128
-5 -14 5 -43 26 -66 46 -42 38 -265 303 -259 308 2 2 261 33 574 70 314 37
574 72 579 77 6 5 -6 27 -30 56 -22 27 -116 143 -209 258 -227 283 -264 325
-283 325 -10 0 -42 -14 -72 -31z"/>
<path d="M17175 6169 c-33 -33 -104 -99 -157 -146 -54 -47 -98 -89 -98 -94 0
-17 25 -8 60 21 62 54 79 46 213 -92 65 -68 130 -142 144 -166 29 -50 50 -125
98 -357 44 -213 46 -294 9 -348 -52 -77 -15 -58 104 54 117 109 143 140 105
124 -37 -16 -56 -10 -76 23 -21 36 -132 461 -122 470 8 9 475 -140 498 -158
17 -14 18 -20 8 -39 -14 -26 -9 -37 12 -24 29 17 261 243 255 249 -3 3 -21 -3
-40 -12 -65 -35 -128 -25 -488 77 -204 58 -227 72 -350 204 -99 107 -140 162
-140 186 0 9 11 31 25 47 28 34 31 42 12 42 -7 0 -39 -27 -72 -61z"/>
<path d="M6445 6150 c-4 -6 12 -29 34 -53 23 -23 41 -51 41 -62 0 -12 -23 -50
-52 -86 -78 -96 -522 -592 -558 -623 -37 -31 -66 -33 -100 -6 -29 23 -55 27
-43 7 4 -8 44 -45 88 -82 44 -38 110 -97 147 -133 70 -66 113 -78 58 -16 -16
19 -30 44 -30 56 0 29 23 57 291 358 245 274 348 380 371 380 7 0 30 -11 50
-25 64 -43 51 -9 -19 52 -37 32 -99 87 -138 123 -128 119 -132 122 -140 110z"/>
<path d="M7320 5138 c-125 -44 -217 -138 -271 -276 -32 -83 -33 -231 -1 -325
58 -168 195 -274 378 -292 303 -30 532 203 511 518 -9 135 -59 231 -162 309
-80 61 -142 80 -275 85 -100 3 -123 1 -180 -19z"/>
<path d="M15979 5137 c-253 -86 -371 -395 -249 -652 53 -111 131 -180 250
-221 76 -26 223 -26 305 1 129 42 233 144 285 282 28 73 38 209 20 284 -37
158 -161 282 -321 318 -80 19 -217 13 -290 -12z"/>
<path d="M5750 5117 c-32 -16 -52 -59 -44 -91 15 -63 98 -82 140 -32 32 37 30
71 -5 107 -32 32 -53 35 -91 16z"/>
<path d="M13080 4055 c-153 -32 -254 -89 -243 -137 23 -102 47 -178 56 -175 5
1 11 28 12 58 4 91 53 156 133 179 159 44 272 -80 272 -299 0 -174 -78 -338
-284 -600 -59 -75 -81 -121 -58 -121 4 0 144 27 311 59 208 41 309 65 322 77
18 16 19 30 17 133 -2 73 -7 116 -14 118 -7 2 -14 -13 -17 -36 -7 -54 -38 -94
-90 -119 -50 -24 -343 -89 -353 -79 -4 3 16 32 43 64 141 164 255 358 283 481
7 30 10 88 8 130 -10 165 -105 263 -268 276 -38 3 -92 -1 -130 -9z"/>
<path d="M10410 3965 c-96 -40 -183 -79 -194 -85 -39 -24 2 -28 87 -8 65 15
91 18 99 10 9 -9 -2 -84 -41 -289 -64 -341 -95 -470 -118 -496 -16 -17 -26
-19 -90 -13 -40 3 -75 2 -78 -3 -7 -12 6 -16 150 -41 101 -18 226 -43 323 -65
15 -4 22 -1 22 9 0 9 -14 18 -34 21 -18 4 -48 16 -66 27 l-33 19 6 67 c6 74
100 563 147 772 17 73 30 136 30 141 0 18 -40 6 -210 -66z"/>
<path d="M11223 3936 c-88 -29 -158 -90 -193 -169 -64 -144 -15 -298 114 -364
90 -46 226 -42 290 8 32 25 22 48 -12 30 -34 -18 -123 -13 -158 8 -70 43 -104
116 -104 225 0 84 22 139 69 179 39 33 69 41 122 34 55 -7 103 -47 135 -113
24 -49 28 -72 32 -170 6 -142 -14 -233 -73 -352 -70 -138 -145 -219 -309 -335
-15 -10 -26 -22 -26 -27 0 -54 271 108 387 232 188 201 251 473 151 660 -58
109 -149 160 -293 165 -56 2 -106 -2 -132 -11z"/>
<path d="M12155 3937 c-105 -35 -177 -96 -217 -182 -35 -77 -32 -182 7 -254
56 -102 149 -149 274 -137 68 6 146 38 165 68 16 26 1 31 -35 12 -53 -27 -129
-23 -177 9 -118 78 -147 292 -52 387 109 109 261 22 311 -180 21 -88 17 -251
-10 -345 -40 -143 -153 -319 -249 -390 -44 -32 -58 -53 -44 -67 12 -12 143 76
219 146 152 140 243 308 263 482 22 202 -54 374 -193 435 -64 28 -201 36 -262
16z"/>
</g>
</svg>
